<?xml version="1.0" encoding="UTF-8"?>
<svg version="1.1" xmlns="http://www.w3.org/2000/svg" width="1060" height="898">
<path d="M0 0 C1.51826016 -0.00148331 3.03651967 -0.00384473 4.55477729 -0.006993 C8.70038438 -0.01307972 12.84589201 -0.00682404 16.99149161 0.00156327 C21.51143945 0.00847384 26.03137791 0.00368209 30.55132776 0.00040829 C38.46404344 -0.00372742 46.37672895 -0.00047178 54.28944111 0.00768471 C66.05526008 0.01977922 77.82106012 0.02035404 89.58688417 0.01860073 C109.38104833 0.01597574 129.17519912 0.02264508 148.9693594 0.03463554 C168.56434731 0.04647489 188.15932964 0.05416851 207.7543211 0.05634117 C208.97327517 0.05647865 210.19222924 0.05661613 211.44812132 0.05675778 C217.63872645 0.05743445 223.8293316 0.05803722 230.01993675 0.05861153 C273.85301187 0.06281088 317.68607971 0.07628151 361.51915073 0.09521675 C404.09890345 0.11358933 446.67865275 0.12775474 489.25840855 0.13623238 C491.22760301 0.13662695 491.22760301 0.13662695 493.23657918 0.1370295 C506.4203768 0.13966657 519.60417444 0.1422182 532.78797209 0.14470722 C559.64421164 0.14977947 586.50045105 0.15542198 613.35669041 0.16140938 C614.59146131 0.16168396 615.82623221 0.16195854 617.09842042 0.16224144 C699.53594878 0.18063869 781.97347311 0.21232862 864.41099644 0.24609566 C864.47954818 62.93196765 864.54314697 125.61784403 864.580369 188.30374336 C864.58092122 189.23137983 864.58147345 190.1590163 864.58204241 191.11476297 C864.59401379 211.27436101 864.60509456 231.43395945 864.61525775 251.59355848 C864.62024714 261.47969075 864.62543335 271.36582292 864.630723 281.25195503 C864.63124604 282.23574878 864.63176907 283.21954252 864.63230796 284.2331482 C864.64935611 316.12595798 864.67940341 348.01873943 864.71618532 379.91153205 C864.75391203 412.68303145 864.77853736 445.45451517 864.7866564 478.22603591 C864.78780903 482.85381756 864.78911158 487.48159915 864.79050541 492.10938072 C864.7907751 493.02020266 864.79104479 493.9310246 864.79132266 494.8694472 C864.7960512 509.53654248 864.81460794 524.2035893 864.83832457 538.87066481 C864.86186784 553.61277796 864.87086978 568.35484301 864.86500195 583.0969743 C864.86195756 591.85766071 864.87008904 600.61817125 864.89418661 609.37882594 C864.90918591 615.23120678 864.9096513 621.08347245 864.89832369 626.93586124 C864.89228477 630.27045039 864.89475397 633.60443679 864.91052917 636.93903421 C864.92655089 640.53423868 864.91794803 644.12857923 864.90318775 647.72377014 C864.91369581 648.75476365 864.92420386 649.78575716 864.93503034 650.8479929 C864.8157896 663.6764371 858.93867692 673.90440279 849.97349644 682.80859566 C849.2735355 683.46988472 848.57357456 684.13117378 847.85240269 684.81250191 C845.18089418 687.47546158 842.7376936 690.27979156 840.26915073 693.12964058 C837.27556235 696.53936567 834.15393803 699.82542453 831.03599644 703.12109566 C826.21959737 708.23385232 821.45818616 713.38317788 816.78209019 718.62500191 C813.69709194 722.0352718 810.5546835 725.38998049 807.41099644 728.74609566 C803.53928336 732.87970821 799.68443602 737.02209612 795.91099644 741.24609566 C791.5374235 746.14188626 787.05078597 750.92771571 782.56334019 755.71875191 C779.30996164 759.19698599 776.08411221 762.69410039 772.91099644 766.24609566 C768.58270302 771.08927899 764.14875941 775.8294194 759.71055698 780.57153511 C754.23503943 786.42492906 748.8169074 792.32838247 743.41099644 798.24609566 C741.59933899 800.22603478 739.78663329 802.20501128 737.97349644 804.18359566 C737.52208286 804.67625923 737.07066929 805.16892281 736.60557652 805.67651558 C732.71127946 809.92402434 728.80238346 814.15795624 724.89170933 818.39038277 C721.55646841 822.00136135 718.23041159 825.62056729 714.91099644 829.24609566 C710.58363227 833.9725251 706.24034714 838.68399631 701.89146519 843.39062691 C698.55632453 847.00154147 695.23033393 850.62065211 691.91099644 854.24609566 C687.58363227 858.9725251 683.24034714 863.68399631 678.89146519 868.39062691 C675.55632309 872.00154303 672.23065614 875.62094579 668.91099644 879.24609566 C667.58455112 880.69242378 667.58455112 880.69242378 666.23130894 882.16797066 C664.18071817 884.40418155 662.13520112 886.64495659 660.09068394 888.88672066 C658.98923065 890.08994565 657.88767052 891.29307283 656.78599644 892.49609566 C656.26457066 893.06972847 655.74314487 893.64336128 655.20591831 894.23437691 C653.96132241 895.59060323 652.68888622 896.9211932 651.41099644 898.24609566 C651.08099644 898.24609566 650.75099644 898.24609566 650.41099644 898.24609566 C650.41099644 829.60609566 650.41099644 760.96609566 650.41099644 690.24609566 C371.23099644 690.24609566 92.05099644 690.24609566 -195.58900356 690.24609566 C-195.67150356 606.61172066 -195.75400356 522.97734566 -195.83900356 436.80859566 C-195.87541958 410.41060982 -195.91183559 384.01262398 -195.94935513 356.81469917 C-195.96742153 324.55456734 -195.96742153 324.55456734 -195.97077847 309.44737434 C-195.97474639 298.21420498 -195.9919544 286.98113554 -196.01569727 275.74799755 C-196.03962691 264.27020878 -196.04801152 252.79250477 -196.04278336 241.31468749 C-196.04038448 235.09548395 -196.04405859 228.87646227 -196.06586409 222.65729249 C-196.22697158 174.32576267 -196.22697158 174.32576267 -191.58900356 155.24609566 C-191.24630263 153.83474222 -191.24630263 153.83474222 -190.89667845 152.3948766 C-179.62829696 107.01877297 -152.50744869 65.74750128 -114.58900356 38.24609566 C-114.02697231 37.83440132 -113.46494106 37.42270699 -112.88587856 36.99853706 C-80.15268288 13.30263136 -40.40662964 -0.1597118 0 0 Z " fill="#F4A460" transform="translate(195.58900356292725,-0.2460956573486328)"/>
<path d="M0 0 C20.08740383 16.5799794 34.67416192 40.54625781 37.44824219 66.77392578 C39.07289411 97.88132668 30.84349026 124.73163837 10.30371094 148.22705078 C-3.00321298 162.34868433 -20.95048766 171.71054279 -39.55175781 176.77392578 C-40.36902344 176.99822266 -41.18628906 177.22251953 -42.02832031 177.45361328 C-66.9943958 183.09610093 -95.13082723 177.10914579 -116.55175781 163.77392578 C-138.76018442 148.90161607 -153.54996313 127.49630837 -160.55175781 101.77392578 C-160.77605469 100.95666016 -161.00035156 100.13939453 -161.23144531 99.29736328 C-166.64731278 75.33400447 -161.40912355 47.39556926 -148.69482422 26.55273438 C-133.30088858 2.59711391 -110.40125527 -13.4229591 -82.73925781 -19.97607422 C-53.92244843 -25.31686781 -22.99563646 -18.35616595 0 0 Z " fill="#FEFEFE" transform="translate(758.5517578125,269.22607421875)"/>
<path d="M0 0 C20.08740383 16.5799794 34.67416192 40.54625781 37.44824219 66.77392578 C39.07289411 97.88132668 30.84349026 124.73163837 10.30371094 148.22705078 C-3.00321298 162.34868433 -20.95048766 171.71054279 -39.55175781 176.77392578 C-40.36902344 176.99822266 -41.18628906 177.22251953 -42.02832031 177.45361328 C-66.9943958 183.09610093 -95.13082723 177.10914579 -116.55175781 163.77392578 C-138.76018442 148.90161607 -153.54996313 127.49630837 -160.55175781 101.77392578 C-160.77605469 100.95666016 -161.00035156 100.13939453 -161.23144531 99.29736328 C-166.64731278 75.33400447 -161.40912355 47.39556926 -148.69482422 26.55273438 C-133.30088858 2.59711391 -110.40125527 -13.4229591 -82.73925781 -19.97607422 C-53.92244843 -25.31686781 -22.99563646 -18.35616595 0 0 Z " fill="#FEFEFE" transform="translate(324.5517578125,269.22607421875)"/>
<path d="M0 0 C14 0 14 0 18.0078125 3.77734375 C19.09580045 5.46687394 20.13317006 7.18978623 21.125 8.9375 C22.29200773 10.78836671 23.4599925 12.6386177 24.62890625 14.48828125 C25.19367676 15.41979004 25.75844727 16.35129883 26.34033203 17.31103516 C28.74504177 21.20710357 31.3893411 24.91045983 34.0625 28.625 C35.03059006 29.99433791 35.99803389 31.36413291 36.96484375 32.734375 C40.87832422 38.24923667 44.84209264 43.72787037 48.81274414 49.20166016 C49.3308667 49.91628418 49.84898926 50.6309082 50.3828125 51.3671875 C50.84059082 51.99737793 51.29836914 52.62756836 51.77001953 53.27685547 C52.87812807 54.82926318 53.94200855 56.41301282 55 58 C55.33 38.86 55.66 19.72 56 0 C60.62 0 65.24 0 70 0 C70 27.39 70 54.78 70 83 C57 83 57 83 53.4375 79.5625 C52.26860442 77.72278503 51.12665874 75.86587999 50 74 C48.64022491 72.03312595 47.24766644 70.09187765 45.85327148 68.14941406 C44.2819207 65.95734112 42.73036826 63.75244104 41.18359375 61.54296875 C38.08980366 57.12638204 34.9844341 52.71808251 31.875 48.3125 C31.43325439 47.68537109 30.99150879 47.05824219 30.53637695 46.41210938 C25.72213616 39.58536519 20.85572426 32.79801396 16 26 C15.67 44.81 15.34 63.62 15 83 C10.05 83 5.1 83 0 83 C0 55.61 0 28.22 0 0 Z " fill="#FFFFFF" transform="translate(122,765)"/>
<path d="M0 0 C7.45249251 6.39763603 11.29403004 16.36363067 12.0625 26 C12.87202561 41.19469401 12.8948621 56.85988497 2.34765625 68.96875 C-6.39433588 77.40682829 -18.07084392 79.37282195 -29.83984375 79.2109375 C-41.5642685 78.41255296 -50.41858552 75.51891448 -58.75 67.1875 C-68.31374189 53.25176182 -68.80124216 35.69933618 -65.8125 19.5 C-63.65618959 10.83464094 -59.90336042 3.28286253 -52.296875 -1.75 C-36.64006958 -10.04499625 -14.87201671 -10.08732145 0 0 Z M-46.25 12 C-53.65142043 21.72066661 -52.81437934 35.24338553 -51.65625 46.80859375 C-50.58474743 52.75337245 -48.06079977 58.57699166 -43.1953125 62.3515625 C-35.58654371 66.89069925 -26.57687399 67.33004104 -18.0390625 65.31640625 C-11.76587029 63.04637724 -8.04528875 60.18130452 -4.9765625 54.09375 C-1.04788877 43.85757257 -1.01922521 28.23653518 -4.8984375 17.9765625 C-7.83857203 12.38367502 -11.04720345 8.98013952 -16.99755859 6.58666992 C-20.2604181 5.59992799 -23.50133927 5.55429454 -26.875 5.625 C-27.93050049 5.6413147 -27.93050049 5.6413147 -29.00732422 5.65795898 C-36.06501853 5.87477895 -41.14199425 6.84252204 -46.25 12 Z " fill="#FFFFFF" transform="translate(71.9375,771)"/>
<path d="M0 0 C4.95 0 9.9 0 15 0 C15 11.88 15 23.76 15 36 C27.87 36 40.74 36 54 36 C54 24.12 54 12.24 54 0 C58.95 0 63.9 0 69 0 C69 27.39 69 54.78 69 83 C64.05 83 59.1 83 54 83 C54 71.45 54 59.9 54 48 C41.13 48 28.26 48 15 48 C15 59.55 15 71.1 15 83 C10.05 83 5.1 83 0 83 C0 55.61 0 28.22 0 0 Z " fill="#FFFFFF" transform="translate(486,765)"/>
<path d="M0 0 C19.47 0 38.94 0 59 0 C59 3.96 59 7.92 59 12 C44.48 12 29.96 12 15 12 C15 19.92 15 27.84 15 36 C27.87 36 40.74 36 54 36 C54 39.96 54 43.92 54 48 C41.13 48 28.26 48 15 48 C15 55.92 15 63.84 15 72 C29.52 72 44.04 72 59 72 C59 75.63 59 79.26 59 83 C39.53 83 20.06 83 0 83 C0 55.61 0 28.22 0 0 Z " fill="#FFFFFF" transform="translate(233,765)"/>
<path d="M0 0 C5.28 0 10.56 0 16 0 C19.00890744 6.60942542 21.70493159 13.28377414 24.265625 20.078125 C24.66271667 21.12538757 25.05980835 22.17265015 25.46893311 23.25164795 C26.73169533 26.58352646 27.99094361 29.9167196 29.25 33.25 C30.49113846 36.5283141 31.73299337 39.80635606 32.97497559 43.08435059 C33.7905165 45.23834807 34.60505917 47.39272377 35.4185791 49.54748535 C37.39040271 54.76791184 39.37536471 59.98247306 41.39257812 65.18554688 C41.76678894 66.1544989 42.14099976 67.12345093 42.52655029 68.12176514 C43.23074482 69.94276353 43.93890752 71.76223406 44.65167236 73.57989502 C44.96223572 74.38465271 45.27279907 75.1894104 45.59277344 76.01855469 C46.0024234 77.06882843 46.0024234 77.06882843 46.42034912 78.14031982 C47 80 47 80 47 83 C42.05 83 37.1 83 32 83 C29.36 76.4 26.72 69.8 24 63 C13.44 63 2.88 63 -8 63 C-11.96 72.9 -11.96 72.9 -16 83 C-21.28 83 -26.56 83 -32 83 C-25.56263957 65.14779527 -18.89635476 47.39180216 -12.0625 29.6875 C-11.69246857 28.72670532 -11.32243713 27.76591064 -10.94119263 26.77600098 C-9.87107343 23.99934402 -8.79750032 21.22404968 -7.72265625 18.44921875 C-7.40631226 17.6283226 -7.08996826 16.80742645 -6.76403809 15.96165466 C-4.66606844 10.56445521 -2.38542836 5.27667694 0 0 Z M7 16 C5.14648642 20.82300313 3.29512951 25.64682623 1.44580078 30.47143555 C0.81586549 32.11391784 0.18533269 33.7561711 -0.44580078 35.39819336 C-1.35084254 37.75314896 -2.25375948 40.10890946 -3.15625 42.46484375 C-3.44060913 43.20339096 -3.72496826 43.94193817 -4.01794434 44.7028656 C-5.39842831 47.76810224 -5.39842831 47.76810224 -6 51 C2.91 51 11.82 51 21 51 C20.19556303 46.17337817 19.22558682 42.56301865 17.49609375 38.0703125 C17.2533522 37.43511688 17.01061066 36.79992126 16.76051331 36.14547729 C15.99143407 34.13658597 15.21461315 32.13079531 14.4375 30.125 C13.91159295 28.75540652 13.38619716 27.38561661 12.86132812 26.015625 C11.58012222 22.67479163 10.29196034 19.33669147 9 16 C8.34 16 7.68 16 7 16 Z " fill="#FFFFFF" transform="translate(625,765)"/>
<path d="M0 0 C1 1 1 1 1.09765625 3.94140625 C1.08605469 5.13636719 1.07445312 6.33132813 1.0625 7.5625 C1.05347656 8.76003906 1.04445313 9.95757813 1.03515625 11.19140625 C1.02355469 12.11824219 1.01195312 13.04507813 1 14 C0.28199219 13.7834375 -0.43601562 13.566875 -1.17578125 13.34375 C-12.99680595 10.1639974 -27.83371048 8.16721562 -39.1875 13.8046875 C-44.58240771 17.36253612 -47.00444277 23.08690701 -48.5625 29.2109375 C-50.18114908 39.52982538 -50.14100519 50.68925444 -45 60 C-41.10123889 64.92475088 -36.17397577 67.82997413 -30 69 C-19.12695554 69.61058133 -9.58693722 68.67459467 1 66 C1 70.29 1 74.58 1 79 C-14.05812056 84.41151208 -30.87470481 85.16815861 -45.859375 78.78125 C-55.48234759 73.53235586 -60.82204098 65.3198239 -64 55 C-67.46187296 41.82180358 -65.82277504 25.53726492 -59.3125 13.6875 C-53.44793119 4.71053103 -46.05730708 0.13910807 -35.79296875 -2.5859375 C-24.06082349 -4.32524855 -11.26207622 -3.79333457 0 0 Z " fill="#FFFFFF" transform="translate(447,767)"/>
<path d="M0 0 C22.44 0 44.88 0 68 0 C68 3.96 68 7.92 68 12 C59.09 12 50.18 12 41 12 C41 35.43 41 58.86 41 83 C36.05 83 31.1 83 26 83 C26 59.57 26 36.14 26 12 C17.42 12 8.84 12 0 12 C0 8.04 0 4.08 0 0 Z " fill="#FFFFFF" transform="translate(695,765)"/>
</svg>
